<svg width="16" height="16" viewBox="0 0 16 16" fill="none" xmlns="http://www.w3.org/2000/svg">
<path fill-rule="evenodd" clip-rule="evenodd" d="M0.5 7.16666C0.500152 6.10571 0.753515 5.06012 1.23903 4.11678C1.72455 3.17344 2.4282 2.3596 3.2915 1.7429C4.15481 1.12619 5.15283 0.724437 6.20263 0.571018C7.25243 0.417599 8.32368 0.516947 9.32737 0.860806C10.331 1.20466 11.2382 1.7831 11.9733 2.54805C12.7085 3.31299 13.2505 4.24235 13.5543 5.25889C13.858 6.27543 13.9148 7.34978 13.7198 8.39266C13.5249 9.43555 13.0838 10.4168 12.4333 11.255L15.2558 14.0775C15.4076 14.2347 15.4916 14.4452 15.4897 14.6637C15.4878 14.8822 15.4002 15.0912 15.2457 15.2457C15.0912 15.4002 14.8822 15.4878 14.6637 15.4897C14.4452 15.4916 14.2347 15.4076 14.0775 15.2558L11.255 12.4333C10.2695 13.1984 9.08919 13.6716 7.84814 13.7991C6.60709 13.9267 5.35516 13.7034 4.23471 13.1547C3.11425 12.606 2.17024 11.754 1.51002 10.6954C0.849799 9.63683 0.499861 8.41424 0.5 7.16666ZM8 4.66666C8 4.44565 7.9122 4.23368 7.75592 4.0774C7.59964 3.92112 7.38768 3.83333 7.16667 3.83333C6.94565 3.83333 6.73369 3.92112 6.57741 4.0774C6.42113 4.23368 6.33333 4.44565 6.33333 4.66666V6.33333H4.66667C4.44565 6.33333 4.23369 6.42112 4.07741 6.5774C3.92113 6.73368 3.83333 6.94564 3.83333 7.16666C3.83333 7.38767 3.92113 7.59963 4.07741 7.75591C4.23369 7.91219 4.44565 7.99999 4.66667 7.99999H6.33333V9.66666C6.33333 9.88767 6.42113 10.0996 6.57741 10.2559C6.73369 10.4122 6.94565 10.5 7.16667 10.5C7.38768 10.5 7.59964 10.4122 7.75592 10.2559C7.9122 10.0996 8 9.88767 8 9.66666V7.99999H9.66667C9.88768 7.99999 10.0996 7.91219 10.2559 7.75591C10.4122 7.59963 10.5 7.38767 10.5 7.16666C10.5 6.94564 10.4122 6.73368 10.2559 6.5774C10.0996 6.42112 9.88768 6.33333 9.66667 6.33333H8V4.66666Z" fill="#FFC700"/>
</svg>
