<svg width="18" height="20" viewBox="0 0 18 20" fill="none" xmlns="http://www.w3.org/2000/svg">
<path d="M7.84615 -0.0238342C6.33999 -0.0238342 5.12999 1.2277 5.12999 2.74078V3.07693H2.07691C1.65307 3.07693 1.30768 3.42232 1.30768 3.84617V4.6154H0.538452V6.15386H2.07691V17.6923C2.07691 18.9577 3.11922 20 4.38461 20H13.6154C14.8808 20 15.9231 18.9577 15.9231 17.6923V6.15386H17.4615V4.6154H16.6923V3.84617C16.6923 3.42232 16.3469 3.07693 15.9231 3.07693H12.87V2.74001C12.87 1.2277 11.66 -0.0238342 10.1538 -0.0238342H7.84615ZM7.84615 1.56232H10.1538C10.7723 1.56232 11.2838 2.06693 11.2838 2.74001V3.07693H6.71538V2.74001C6.71538 2.06693 7.22691 1.56309 7.84538 1.56309L7.84615 1.56232ZM3.61538 6.15386H7.55768C7.65307 6.16386 7.74768 6.1777 7.84615 6.1777H10.1538C10.2523 6.1777 10.3461 6.16386 10.4423 6.15386H14.3846V17.6923C14.3846 18.1254 14.0485 18.4615 13.6154 18.4615H4.38461C3.95153 18.4615 3.61538 18.1254 3.61538 17.6923V6.15386ZM5.15384 7.69232V16.9231H6.6923V7.69232H5.15384ZM8.23076 7.69232V16.9231H9.76922V7.69232H8.23076ZM11.3077 7.69232V16.9231H12.8461V7.69232H11.3077Z" fill="#F24E1E"/>
</svg>
